HIERARCHY
ROOT Hips
{
	OFFSET	0.00	0.00	0.00
	CHANNELS 6 Xposition Yposition Zposition Zrotation Xrotation Yrotation
	JOINT LeftUpLeg
	{
		OFFSET	 0.126116	-0.065224	 0.014019
		CHANNELS 3 Zrotation Xrotation Yrotation
		JOINT LeftLeg
		{
			OFFSET	 0.000000	 0.569914	 0.000000
			CHANNELS 3 Zrotation Xrotation Yrotation
			JOINT LeftFoot
			{
				OFFSET	 0.000000	 0.544423	 0.000000
				CHANNELS 3 Zrotation Xrotation Yrotation
				JOINT LeftToeBase
				{
					OFFSET	 0.000000	 0.207117	 0.000000
					CHANNELS 3 Zrotation Xrotation Yrotation
					End Site
					{
						OFFSET	 0.000000	 0.207117	 0.000000
					}
				}
			}
		}
	}
	JOINT RightUpLeg
	{
		OFFSET	-0.124023	-0.065224	 0.008373
		CHANNELS 3 Zrotation Xrotation Yrotation
		JOINT RightLeg
		{
			OFFSET	 0.000000	 0.570047	 0.000000
			CHANNELS 3 Zrotation Xrotation Yrotation
			JOINT RightFoot
			{
				OFFSET	 0.000000	 0.544354	 0.000000
				CHANNELS 3 Zrotation Xrotation Yrotation
				JOINT RightToeBase
				{
					OFFSET	 0.000000	 0.207540	 0.000000
					CHANNELS 3 Zrotation Xrotation Yrotation
					End Site
					{
						OFFSET	 0.000000	 0.207540	 0.000000
					}
				}
			}
		}
	}
	JOINT Spine
	{
		OFFSET	 0.000184	 0.117403	 0.007763
		CHANNELS 3 Zrotation Xrotation Yrotation
		JOINT Spine1
		{
			OFFSET	 0.000000	 0.137269	 0.000000
			CHANNELS 3 Zrotation Xrotation Yrotation
			JOINT Spine2
			{
				OFFSET	 0.000000	 0.156879	 0.000000
				CHANNELS 3 Zrotation Xrotation Yrotation
				JOINT LeftShoulder
				{
					OFFSET	 0.080501	 0.160143	 0.002496
					CHANNELS 3 Zrotation Xrotation Yrotation
					JOINT LeftArm
					{
						OFFSET	 0.000000	 0.164363	 0.000000
						CHANNELS 3 Zrotation Xrotation Yrotation
						JOINT LeftForeArm
						{
							OFFSET	 0.000000	 0.364576	 0.000000
							CHANNELS 3 Zrotation Xrotation Yrotation
							JOINT LeftHand
							{
								OFFSET	 0.000000	 0.360812	 0.000000
								CHANNELS 3 Zrotation Xrotation Yrotation
								JOINT LeftHandIndex1
								{
									OFFSET	 0.000000	 0.086006	 0.000000
									CHANNELS 3 Zrotation Xrotation Yrotation
									JOINT LeftHandIndex2
									{
										OFFSET	 0.000000	 0.047237	 0.000000
										CHANNELS 3 Zrotation Xrotation Yrotation
										JOINT LeftHandIndex3
										{
											OFFSET	-0.004284	 0.038165	 0.000551
											CHANNELS 3 Zrotation Xrotation Yrotation
											End Site
											{
												OFFSET	-0.004284	 0.038165	 0.000551
											}
										}
									}
								}
							}
						}
					}
				}
				JOINT Neck
				{
					OFFSET	 0.000000	 0.176489	 0.000000
					CHANNELS 3 Zrotation Xrotation Yrotation
					JOINT Head
					{
						OFFSET	 0.000000	 0.077941	 0.001747
						CHANNELS 3 Zrotation Xrotation Yrotation
						End Site
						{
							OFFSET	 0.000000	 0.077941	 0.001747
						}
					}
				}
				JOINT RightShoulder
				{
					OFFSET	-0.080363	 0.159706	-0.000306
					CHANNELS 3 Zrotation Xrotation Yrotation
					JOINT RightArm
					{
						OFFSET	 0.000000	 0.164196	 0.000000
						CHANNELS 3 Zrotation Xrotation Yrotation
						JOINT RightForeArm
						{
							OFFSET	 0.000000	 0.365611	 0.000000
							CHANNELS 3 Zrotation Xrotation Yrotation
							JOINT RightHand
							{
								OFFSET	 0.000000	 0.360648	 0.000000
								CHANNELS 3 Zrotation Xrotation Yrotation
								JOINT RightHandIndex1
								{
									OFFSET	 0.000000	 0.069977	 0.000000
									CHANNELS 3 Zrotation Xrotation Yrotation
									JOINT RightHandIndex2
									{
										OFFSET	 0.000000	 0.052305	 0.000000
										CHANNELS 3 Zrotation Xrotation Yrotation
										JOINT RightHandIndex3
										{
											OFFSET	 0.009002	 0.042196	 0.000782
											CHANNELS 3 Zrotation Xrotation Yrotation
											End Site
											{
												OFFSET	 0.009002	 0.042196	 0.000782
											}
										}
									}
								}
							}
						}
					}
				}
			}
		}
	}
}
MOTION
Frames:    6
Frame Time: 0.03333334
 0.944947	 1.200758	-0.185387	 7.509815	-3.721788	-39.783520	-175.684300	 14.159430	-27.340090	 4.813150	-42.304050	 7.338122	 74.755570	 48.742080	-93.822400	 1.398006	 23.660660	-7.474018	 145.888800	 26.966640	 56.307400	-4.160833	-40.093570	-4.227209	-55.768400	 45.583350	 58.795550	-1.927110	 31.305550	 3.773428	-0.640266	 6.781215	 22.889330	-7.320892	 0.105847	 4.939008	 9.155566	 8.142452	-15.301120	-107.341500	-14.356680	 100.048900	 43.888000	 39.679800	-32.372290	 7.907796	-0.214272	-4.754226	 12.583450	 9.829785	 93.600440	-6.025631	 15.601190	-6.355775	-7.183774	 8.696003	 2.128731	 4.963066	-4.014628	-0.346955	 13.782110	-7.937586	-10.024280	 2.083748	-1.731881	-49.386830	 88.951980	-1.317457	-91.474950	-21.289020	-9.351808	 79.789150	-7.295297	-0.695743	 11.502080	 25.612390	-39.197420	-31.967220	-2.906077	 16.238040	-3.308715	 14.389480	 23.801620	-7.018360	-8.239867	-2.131385	 0.447455
 1.015152	 1.243845	-0.162149	 1.792457	-4.638166	-38.880860	-177.193600	 5.131430	-25.774300	 3.074456	-30.187450	 2.899512	 66.160190	 48.822320	-80.254840	 1.398040	 23.660630	-7.474037	 161.724800	 19.345890	 34.277540	-1.973279	-21.778070	-1.134505	-40.707320	 41.904790	 45.375890	-1.343257	 28.350250	 3.469690	 0.286019	 5.434853	 1.281827	-4.748371	-0.127586	 3.450770	 4.289919	 4.189378	-16.481030	-110.720500	-25.394410	 102.862600	 48.286420	 36.194930	-38.521240	 8.930764	-0.203760	 8.772906	 11.769720	 1.167707	 85.609860	-7.543408	 15.579190	-5.787879	-7.283660	 9.046420	 2.196653	 4.963066	-4.014628	-0.346955	 8.692459	-9.510101	-13.695810	 0.838798	 2.657887	-46.763720	 92.786020	 3.852761	-92.756960	-18.855760	-8.304510	 63.737890	-8.242097	-0.785402	-2.202521	 34.404970	-32.566990	-16.395740	-2.902164	 15.980880	-3.753620	 14.420310	 24.549400	-7.232765	-8.239867	-2.131385	 0.447455
 1.028200	 1.254531	-0.149795	 1.176074	-4.774918	-41.890590	-178.496500	 2.256577	-29.074230	 2.446367	-24.693860	 0.385403	 63.488130	 49.722160	-75.920690	 1.398034	 23.660610	-7.474036	 165.620100	 12.551040	 27.297180	-0.439593	-5.087033	 0.998684	-34.808020	 36.382450	 36.806020	-1.185174	 27.241970	 3.370419	 0.880465	 4.535778	-19.078360	-0.965918	 1.111006	 2.560155	-0.697972	 1.326343	-15.106020	-111.954600	-30.314710	 102.611600	 50.118340	 36.693930	-38.446830	 15.634120	-0.128006	 22.135410	 3.646735	 5.935924	 75.662190	-7.496634	 16.273020	-5.677571	-7.343402	 9.104431	 2.212393	 4.963066	-4.014628	-0.346955	 5.451804	-10.499070	-13.735500	 0.136305	 2.649764	-45.202340	 92.934680	 7.934001	-93.845860	-17.752130	-5.823399	 58.368960	-14.906860	-1.232327	-16.948760	 27.590740	-26.304090	-8.576187	-2.898158	 15.713030	-4.216906	 14.455850	 25.327920	-7.457680	-8.239867	-2.131385	 0.447455
 1.022786	 1.254424	-0.151368	 0.590320	-4.704406	-43.157890	-177.838700	 1.674570	-29.747110	 2.371259	-24.168310	-0.067639	 62.629900	 50.035330	-75.364640	 1.398005	 23.660610	-7.474021	 166.417400	 12.336590	 26.292780	-0.439463	-5.085391	 1.339001	-35.098690	 36.824680	 36.708100	-1.181939	 27.223490	 3.368047	 1.308023	 4.117725	-30.807390	 1.275211	 2.028275	 2.084119	-3.321263	-0.009631	-13.772800	-111.836500	-29.838190	 102.552700	 50.504810	 36.464570	-38.145220	 21.616320	-0.133436	 34.002220	-1.851393	 11.506160	 61.423990	-7.323613	 17.326670	-5.609908	-7.362271	 8.863963	 2.172860	 4.963066	-4.014628	-0.346955	 5.766614	-9.781230	-12.174890	-1.259796	 0.331515	-45.953750	 92.875080	 8.738881	-94.152060	-17.317440	-5.174495	 57.644890	-20.945220	-0.755751	-32.399110	 23.406720	-24.611300	 3.684799	-2.894372	 15.436340	-4.695301	 14.496320	 26.131800	-7.691885	-8.239867	-2.131385	 0.447455
 1.018427	 1.253207	-0.157356	 0.349086	-4.772793	-43.159440	-177.211500	 1.744456	-29.605370	 2.480221	-25.143370	 0.333143	 62.396100	 49.868440	-75.615140	 1.397965	 23.660630	-7.474000	 166.845200	 11.917670	 26.356670	-0.445642	-5.095957	 0.946474	-35.507230	 36.660770	 37.089720	-1.231035	 27.502220	 3.404083	 1.488803	 4.074761	-29.663270	 1.281760	 1.907298	 1.769779	-2.744269	 0.320005	-12.611170	-111.569800	-29.605550	 102.771200	 49.607670	 37.023380	-37.551590	 26.431800	-0.049574	 43.846490	-0.031620	 9.353307	 38.859000	-7.389222	 16.840380	-5.671837	-7.350749	 8.384290	 2.089426	 4.963066	-4.014628	-0.346955	 6.999122	-9.415862	-11.163040	-1.521452	-0.024559	-47.032950	 92.930160	 8.905335	-94.324070	-16.730420	-6.069236	 57.921930	-25.631850	 1.938387	-49.320900	 25.126130	-21.102170	 28.188390	-2.890277	 15.142770	-5.202786	 14.543490	 26.984290	-7.942539	-8.239867	-2.131385	 0.447455
 1.017809	 1.252696	-0.158614	 0.146056	-4.813978	-43.082240	-176.937600	 1.715293	-29.596460	 2.542947	-25.492000	 0.497109	 62.354480	 49.865960	-75.769940	 1.397949	 23.660650	-7.473987	 167.072600	 11.779970	 26.297140	-0.440467	-5.099439	 0.946104	-35.581570	 36.623930	 37.166470	-1.247139	 27.593280	 3.415931	 0.846623	 4.273013	-19.144920	 1.476411	 1.927671	 1.317321	-2.535343	 0.460873	-11.083290	-111.594600	-29.709720	 102.708900	 49.163120	 36.717280	-37.254990	 28.823770	-0.013554	 48.714750	 0.512612	 7.139467	 16.479500	-7.376950	 16.940980	-5.677058	-7.343405	 8.006124	 2.024065	 4.963066	-4.014628	-0.346955	 7.361461	-9.235248	-10.680320	-1.358608	 0.444326	-47.306550	 92.934910	 9.284384	-94.518730	-15.796850	-6.490018	 58.094110	-27.776180	 3.921567	-58.063560	 23.337250	-17.720160	 48.323730	-2.886885	 14.904250	-5.615057	 14.585090	 27.676590	-8.147941	-8.239867	-2.131385	 0.447455
